<svg xmlns="http://www.w3.org/2000/svg" width="512" height="512" viewBox="0 0 512 512" role="img" aria-label="Installment Management">
  <defs>
    <linearGradient id="bg" x1="0" y1="0" x2="0" y2="1">
      <stop offset="0%" stop-color="#0B1C24"/>
      <stop offset="100%" stop-color="#0D9488"/>
    </linearGradient>
    <filter id="shadow" x="-10%" y="-10%" width="120%" height="130%">
      <feDropShadow dx="6" dy="10" stdDeviation="8" flood-color="#001418" flood-opacity="0.35"/>
    </filter>
  </defs>
  <rect width="512" height="512" rx="96" fill="url(#bg)"/>
  <rect x="10" y="10" width="492" height="160" rx="80" fill="#FFFFFF" opacity="0.11"/>
  <rect x="86" y="78" width="340" height="352" rx="46" fill="#F8FBFC" stroke="#E2E8F0" stroke-width="4" filter="url(#shadow)"/>
  <path d="M86 124c0-25 21-46 46-46h248c25 0 46 21 46 46v42H86z" fill="#0D9488"/>
  <rect x="162" y="46" width="28" height="52" rx="8" fill="#CCFBF1" stroke="#0F766E" stroke-width="4"/>
  <rect x="242" y="46" width="28" height="52" rx="8" fill="#CCFBF1" stroke="#0F766E" stroke-width="4"/>
  <rect x="322" y="46" width="28" height="52" rx="8" fill="#CCFBF1" stroke="#0F766E" stroke-width="4"/>
  <g fill="#0D9488">
    <rect x="118" y="192" width="58" height="58" rx="12"/>
    <rect x="192" y="192" width="58" height="58" rx="12"/>
    <rect x="266" y="192" width="58" height="58" rx="12"/>
    <rect x="118" y="266" width="58" height="58" rx="12"/>
  </g>
  <g fill="none" stroke="#FFFFFF" stroke-width="6" stroke-linecap="round" stroke-linejoin="round">
    <polyline points="130,224 142,236 164,208"/>
    <polyline points="204,224 216,236 238,208"/>
    <polyline points="278,224 290,236 312,208"/>
    <polyline points="130,298 142,310 164,282"/>
  </g>
  <rect x="192" y="266" width="58" height="58" rx="12" fill="#CCFBF1" stroke="#0D9488" stroke-width="4"/>
  <path d="M192 295h58v17a12 12 0 0 1-12 12h-34a12 12 0 0 1-12-12z" fill="#0D9488"/>
  <g fill="#F1F5F9" stroke="#94A3B8" stroke-width="3">
    <rect x="340" y="192" width="58" height="58" rx="12"/>
    <rect x="266" y="266" width="58" height="58" rx="12"/>
    <rect x="340" y="266" width="58" height="58" rx="12"/>
    <rect x="118" y="340" width="58" height="58" rx="12"/>
    <rect x="192" y="340" width="58" height="58" rx="12"/>
    <rect x="266" y="340" width="58" height="58" rx="12"/>
    <rect x="340" y="340" width="58" height="58" rx="12"/>
  </g>
  <circle cx="400" cy="400" r="58" fill="#F59E0B" stroke="#FFEDD5" stroke-width="6"/>
  <circle cx="400" cy="400" r="38" fill="none" stroke="#FFFBEB" stroke-width="5"/>
  <rect x="394" y="378" width="12" height="44" rx="3" fill="#FFFBEB"/>
  <path d="M390 390c6-10 24-10 30 0" fill="none" stroke="#FFFBEB" stroke-width="6" stroke-linecap="round"/>
  <path d="M390 414c6 10 24 10 30 0" fill="none" stroke="#FFFBEB" stroke-width="6" stroke-linecap="round"/>
</svg>
